<?xml version="1.0" standalone="no"?>
<!DOCTYPE svg PUBLIC "-//W3C//DTD SVG 20010904//EN" "http://www.w3.org/TR/2001/REC-SVG-20010904/DTD/svg10.dtd">
<!-- Created using Krita: http://krita.org -->
<svg xmlns="http://www.w3.org/2000/svg" 
    xmlns:xlink="http://www.w3.org/1999/xlink"
    xmlns:krita="http://krita.org/namespaces/svg/krita"
    xmlns:sodipodi="http://sodipodi.sourceforge.net/DTD/sodipodi-0.dtd"
    width="1128.96pt"
    height="708.48pt"
    viewBox="0 0 1128.96 708.48">
<defs/>
<path id="shape0" transform="matrix(0.72000002491231 0 0 0.72 904.536011766084 238.176008290221)" fill="#777f32" d="M0 53.2C0 23.8 23.8 0 53.2 0C72.9 0 90.1 10.8 99.3 26.8C105.9 15.3 118.3 7.5 132.5 7.5C153.6 7.5 170.7 24.6 170.7 45.7C170.7 60.1 162.7 72.7 150.9 79.2C155 84.3 157.5 90.8 157.5 97.8C157.5 112.6 146.7 124.8 132.5 127.1L132.5 390.3L28 390.3L28 100.1C11.3 91.1 0 73.5 0 53.2Z"/><circle id="shape1" transform="matrix(0.72000002491231 0 0 0.72 921.888012366471 258.264008290221)" r="26.1" cx="26.1" cy="26.1" fill="#9ab554"/><circle id="shape2" transform="matrix(0.72000002491231 0 0 0.72 992.880014822825 264.960008290221)" r="16.8" cx="16.8" cy="16.8" fill="#9ab554"/><circle id="shape3" transform="matrix(0.72000002491231 0 0 0.72 963.000013788964 292.536008290221)" r="16.8" cx="16.8" cy="16.8" fill="#9ab554"/><path id="shape4" transform="matrix(0.72000002491231 0 0 0.72 914.544012112366 332.208008290221)" fill="#9ab554" d="M0 11.2C0 17.4 5 22.4 11.2 22.4L51.3 22.4C57.5 22.4 62.5 17.4 62.5 11.2L62.5 11.2C62.5 5 57.5 0 51.3 0L11.2 0C5 0.1 0 5.1 0 11.2Z"/><path id="shape5" transform="matrix(0.72000002491231 0 0 0.72 914.544012112366 445.752008290221)" fill="#9ab554" d="M0 11.2C0 17.4 5 22.4 11.2 22.4L51.3 22.4C57.5 22.4 62.5 17.4 62.5 11.2L62.5 11.2C62.5 5 57.5 0 51.3 0L11.2 0C5 0 0 5 0 11.2Z"/><path id="shape6" transform="matrix(0.72000002491231 0 0 0.72 950.544013357981 369.432008290221)" fill="#9ab554" d="M0 11.2C0 17.4 5 22.4 11.2 22.4L71.4 22.4C77.6 22.4 82.6 17.4 82.6 11.2L82.6 11.2C82.6 5 77.6 0 71.4 0L11.2 0C5 1.13687e-13 0 5 0 11.2Z"/><path id="shape7" transform="matrix(0.72000002491231 0 0 0.72 950.544013357981 407.664008290221)" fill="#9ab554" d="M0 11.2C0 17.4 5 22.4 11.2 22.4L71.4 22.4C77.6 22.4 82.6 17.4 82.6 11.2L82.6 11.2C82.6 5 77.6 0 71.4 0L11.2 0C5 0 0 5.1 0 11.2Z"/><rect id="shape8" transform="matrix(0.720000024912309 0 0 0.719999999999999 -1.95312499045031e-05 519.264008290221)" fill="#6d6e71" width="1568" height="57.2" rx="30.1968616262452" ry="28.6"/><rect id="shape9" transform="matrix(0.720000024912309 0 0 0.719999999999999 -1.95312499045031e-05 560.448008290221)" fill="#58595b" width="1568" height="169.6" rx="82.1226818830214" ry="82.1226818830214"/><path id="shape10" transform="matrix(0.72000002491231 0 0 0.72 875.664010767101 400.824008290221)" fill="#9ab554" d="M244.6 81C236.4 70.6 223.7 63.9 209.4 63.9L191 63.9C191 28.6 162.4 0 127.1 0C106.5 0 88.2 9.8 76.5 24.9C69.6 20.6 61.4 18.2 52.7 18.2C27.4 18.2 7 38.7 7 63.9C7 69.7 8.1 75.3 10.1 80.4C3.8 88.1 0 97.9 0 108.7L0 119.8C0 125 0.9 129.9 2.5 134.6L205.1 134.6C205.2 134.5 243.4 134.9 244.6 81Z"/><path id="shape11" transform="matrix(0.72000002491231 0 0 0.72 877.536010831873 459.144008290221)" fill="#849c48" d="M242 0C240.8 53.9 202.6 53.5 202.6 53.5L0 53.5C6.1 71 22.7 83.5 42.2 83.5L206.8 83.5C231.5 83.5 251.6 63.5 251.6 38.7L251.6 27.6C251.6 17.2 248 7.6 242 0Z"/><circle id="shape12" transform="matrix(0.720000024912309 0 0 0.719999999999999 949.536013323104 422.064008290221)" r="29.9" cx="29.9" cy="29.9" fill="#8ea64e"/><circle id="shape13" transform="matrix(0.720000024912309 0 0 0.719999999999999 910.008011955418 450.000008290221)" r="13.9" cx="13.9" cy="13.9" fill="#8ea64e"/><path id="shape14" transform="matrix(0.72000002491231 0 0 0.72 1030.89601613819 409.752008290221)" fill="#6d6e71" d="M98.4 46.9C93.7 46.9 89.8 43.1 89.8 38.3C89.8 33.6 93.6 29.7 98.4 29.7C99.1 29.7 99.8 29.8 100.4 30L103 0L0 0L2.6 30C3.3 29.8 3.9 29.7 4.6 29.7C9.3 29.7 13.2 33.5 13.2 38.3C13.2 43 9.4 46.9 4.6 46.9C4.4 46.9 4.2 46.9 4 46.8L6.5 75.8C6.6 75.8 6.8 75.8 6.9 75.8C11.4 75.8 15.1 79.5 15.1 84C15.1 88.2 12 91.6 7.9 92.1L10.6 124.2L92.4 124.2L95.1 92.1C91.1 91.6 87.9 88.2 87.9 84C87.9 79.5 91.6 75.8 96.1 75.8C96.2 75.8 96.4 75.8 96.5 75.8L99 46.8C98.8 46.8 98.6 46.9 98.4 46.9ZM86.7 7C91.4 7 95.3 10.8 95.3 15.6C95.3 20.3 91.5 24.2 86.7 24.2C82 24.2 78.1 20.4 78.1 15.6C78.1 10.9 82 7 86.7 7ZM83.6 38.3C83.6 43 79.8 46.9 75 46.9C70.3 46.9 66.4 43.1 66.4 38.3C66.4 33.6 70.2 29.7 75 29.7C79.7 29.7 83.6 33.6 83.6 38.3ZM70.8 60.9C70.8 65.4 67.1 69.1 62.6 69.1C58.1 69.1 54.4 65.4 54.4 60.9C54.4 56.4 58.1 52.7 62.6 52.7C67.2 52.7 70.8 56.4 70.8 60.9ZM63.2 7C67.9 7 71.8 10.8 71.8 15.6C71.8 20.3 68 24.2 63.2 24.2C58.5 24.2 54.6 20.4 54.6 15.6C54.7 10.9 58.5 7 63.2 7ZM60.1 38.3C60.1 43 56.3 46.9 51.5 46.9C46.8 46.9 42.9 43.1 42.9 38.3C42.9 33.6 46.7 29.7 51.5 29.7C56.3 29.7 60.1 33.6 60.1 38.3ZM48.5 60.9C48.5 65.4 44.8 69.1 40.3 69.1C35.8 69.1 32.1 65.4 32.1 60.9C32.1 56.4 35.8 52.7 40.3 52.7C44.9 52.7 48.5 56.4 48.5 60.9ZM39.8 7C44.5 7 48.4 10.8 48.4 15.6C48.4 20.3 44.6 24.2 39.8 24.2C35.1 24.2 31.2 20.4 31.2 15.6C31.2 10.9 35 7 39.8 7ZM36.6 38.3C36.6 43 32.8 46.9 28 46.9C23.3 46.9 19.4 43.1 19.4 38.3C19.4 33.6 23.2 29.7 28 29.7C32.8 29.7 36.6 33.6 36.6 38.3ZM7.7 15.6C7.7 10.9 11.5 7 16.3 7C21 7 24.9 10.8 24.9 15.6C24.9 20.3 21.1 24.2 16.3 24.2C11.6 24.2 7.7 20.4 7.7 15.6ZM9.9 60.9C9.9 56.4 13.6 52.7 18.1 52.7C22.6 52.7 26.3 56.4 26.3 60.9C26.3 65.4 22.6 69.1 18.1 69.1C13.5 69 9.9 65.4 9.9 60.9ZM20.7 113.3C16.5 113.3 13.2 109.9 13.2 105.8C13.2 101.6 16.6 98.3 20.7 98.3C24.9 98.3 28.2 101.7 28.2 105.8C28.2 109.9 24.8 113.3 20.7 113.3ZM21 83.9C21 79.4 24.7 75.7 29.2 75.7C33.7 75.7 37.4 79.4 37.4 83.9C37.4 88.4 33.7 92.1 29.2 92.1C24.7 92.1 21 88.4 21 83.9ZM41.2 113.3C37 113.3 33.7 109.9 33.7 105.8C33.7 101.6 37.1 98.3 41.2 98.3C45.4 98.3 48.7 101.7 48.7 105.8C48.8 109.9 45.4 113.3 41.2 113.3ZM43.3 83.9C43.3 79.4 47 75.7 51.5 75.7C56 75.7 59.7 79.4 59.7 83.9C59.7 88.4 56 92.1 51.5 92.1C47 92.1 43.3 88.4 43.3 83.9ZM61.8 113.3C57.6 113.3 54.3 109.9 54.3 105.8C54.3 101.6 57.7 98.3 61.8 98.3C66 98.3 69.3 101.7 69.3 105.8C69.3 109.9 65.9 113.3 61.8 113.3ZM65.7 83.9C65.7 79.4 69.4 75.7 73.9 75.7C78.4 75.7 82.1 79.4 82.1 83.9C82.1 88.4 78.4 92.1 73.9 92.1C69.3 92.1 65.7 88.4 65.7 83.9ZM89.8 105.8C89.8 110 86.4 113.3 82.3 113.3C78.1 113.3 74.8 109.9 74.8 105.8C74.8 101.6 78.2 98.3 82.3 98.3C86.5 98.3 89.8 101.6 89.8 105.8ZM85 69C80.5 69 76.8 65.3 76.8 60.8C76.8 56.3 80.5 52.6 85 52.6C89.5 52.6 93.2 56.3 93.2 60.8C93.2 65.3 89.5 69 85 69Z"/><path id="shape15" transform="matrix(0.72000002491231 0 0 0.72 1024.12801590402 392.112008290221)" fill="#d1d3d4" d="M121.8 12.2C121.8 5.5 116.3 0 109.6 0L12.2 0C5.5 0 0 5.5 0 12.2C0 14.8 0.8 17.2 2.2 19.2L120.4 17.7C121.3 16.1 121.8 14.2 121.8 12.2Z"/><path id="shape16" transform="matrix(0.72000002491231 0 0 0.72 1025.78401596132 404.856008290221)" fill="#bdbebf" d="M0 1.5C2.2 4.6 5.8 6.7 10 6.7L107.4 6.7C112.1 6.7 116.2 4 118.2 0Z"/><rect id="shape17" transform="matrix(0.72000002491231 0 0 0.72 1062.36001722686 499.104008290221)" fill="#a4a5a6" width="16.6" height="19.9"/><rect id="shape18" transform="matrix(0.72000002491231 0 0 0.72 1047.60001671616 513.432008290221)" fill="#bdbebf" width="57.6" height="8.4"/><path id="shape19" transform="matrix(0.72000002491231 0 0 0.72 32.0399815773478 392.400008290221)" fill="#9ab554" d="M258.2 112.5L258.2 2.4C253.8 0.9 249.1 0 244.1 0C227 0 212.3 9.8 205 24L117.5 24C102.8 24 90.7 34.6 88.2 48.6L59.6 48.6C26.7 48.6 0 75.3 0 108.2L0 135.3L226.7 135.3C226.7 135.2 258.2 137.3 258.2 112.5Z"/><path id="shape20" transform="matrix(0.72000002491231 0 0 0.72 32.0399815773478 394.128008290221)" fill="#849c48" d="M258.2 0L258.2 110.1C258.2 134.9 226.8 132.9 226.8 132.9L0 132.9L0 173.9L280.5 173.9L280.5 17.1C275.2 9.1 267.3 3.1 258.2 0Z"/><path id="shape21" transform="matrix(0.720000024912309 0 0 0.719999999999999 80.7119832614199 433.368008290221)" fill="#849c48" d="M88.1 0C74.7 0 63.9 10.8 63.9 24.2C63.9 25.1 64.1 26 64.2 26.8L10.8 26.8C4.8 26.8 0 31.6 0 37.6C0 43.6 4.8 48.4 10.8 48.4L88.1 48.4C101.5 48.4 112.3 37.6 112.3 24.2C112.3 10.8 101.5 0 88.1 0Z"/><path id="shape22" transform="matrix(0.720000024912309 0 0 0.719999999999999 173.663986477599 395.424008290221)" fill="#b9b9ba" d="M32.5 0L74.6 172L0 172Z"/><rect id="shape23" transform="matrix(0.72000002491231 0 0 0.72 187.055986940968 492.840008290221)" fill="#6d6e71" width="1048.5" height="18.3"/><rect id="shape24" transform="matrix(0.72000002491231 0 0 0.72 187.055986940968 506.088008290221)" fill="#535457" width="1048.5" height="18.3"/><rect id="shape25" transform="matrix(0.720000024912309 0 0 0.719999999999999 233.99998856525 220.608008290221)" fill="#009e84" width="917.9" height="378.1"/><path id="shape26" transform="matrix(0.720000024912309 0 0 0.719999999999999 227.555988342286 13.173954081947)" fill="#6b644d" d="M679.6 152.4C650 63.9 566.4 0 467.9 0C369.4 0 285.8 63.8 256.2 152.4L0 152.4L0 250L935.9 250L935.9 152.4Z"/><path id="shape27" transform="matrix(0.720000024912309 0 0 0.719999999999999 308.23199113371 295.632008290221)" fill="#007562" d="M0 0L0 157.4L576.3 157.4L576.3 273.9L711.8 273.9L711.8 157.4L711.8 0Z"/><rect id="shape28" transform="matrix(0.720000024912309 0 0 0.719999999999999 247.391989028619 295.632008290221)" fill="#007562" width="61.6" height="27"/><rect id="shape29" transform="matrix(0.720000024912309 0 0 0.719999999999999 247.391989028619 328.536008290221)" fill="#007562" width="61.6" height="27"/><rect id="shape30" transform="matrix(0.720000024912309 0 0 0.719999999999999 247.391989028619 361.512008290221)" fill="#007562" width="61.6" height="27"/><rect id="shape31" transform="matrix(0.720000024912309 0 0 0.719999999999999 247.391989028619 394.416008290221)" fill="#007562" width="61.6" height="27"/><rect id="shape32" transform="matrix(0.720000024912309 0 0 0.719999999999999 247.391989028619 427.392008290221)" fill="#007562" width="61.6" height="27"/><rect id="shape33" transform="matrix(0.720000024912309 0 0 0.719999999999999 247.391989028619 460.296008290221)" fill="#007562" width="61.6" height="27"/><rect id="shape34" transform="matrix(0.720000024912309 0 0 0.719999999999999 836.42400940938 295.632008290221)" fill="#007562" width="61.6" height="27"/><rect id="shape35" transform="matrix(0.720000024912309 0 0 0.719999999999999 836.42400940938 328.536008290221)" fill="#007562" width="61.6" height="27"/><rect id="shape36" transform="matrix(0.720000024912309 0 0 0.719999999999999 836.42400940938 361.512008290221)" fill="#007562" width="61.6" height="27"/><rect id="shape37" transform="matrix(0.720000024912309 0 0 0.719999999999999 836.42400940938 394.416008290221)" fill="#007562" width="61.6" height="27"/><rect id="shape38" transform="matrix(0.720000024912309 0 0 0.719999999999999 836.42400940938 427.392008290221)" fill="#007562" width="61.6" height="27"/><rect id="shape39" transform="matrix(0.720000024912309 0 0 0.719999999999999 836.42400940938 460.296008290221)" fill="#007562" width="61.6" height="27"/><path id="shape40" transform="matrix(0.720000024912309 0 0 0.719999999999999 201.311987434232 191.736008290221)" fill="#ff665d" d="M972.6 0L504.3 0L36.1 0L0 83.3L504.3 83.3L1008.7 83.3Z"/><path id="shape41" transform="matrix(0.72000002491231 0 0 0.72 201.455655889414 251.712008290221)" fill="#ff7e75" d="M36.0005 36C55.9005 36 72.0005 19.9 72.0005 0L0.000460486 0C-0.0995395 19.9 16.1005 36 36.0005 36Z"/><path id="shape42" transform="matrix(0.72000002491231 0 0 0.72 253.2959892329 251.712008290221)" fill="#ff7e75" d="M36 36C55.9 36 72 19.9 72 0L0 0C0 19.9 16.1 36 36 36Z"/><path id="shape43" transform="matrix(0.72000002491231 0 0 0.72 305.135991026587 251.712008290221)" fill="#ff7e75" d="M36 36C55.9 36 72 19.9 72 0L0 0C0 19.9 16.1 36 36 36Z"/><path id="shape44" transform="matrix(0.72000002491231 0 0 0.72 357.047992822764 251.712008290221)" fill="#ff7e75" d="M36 36C55.9 36 72 19.9 72 0L0 0C0 19.9 16.1 36 36 36Z"/><path id="shape45" transform="matrix(0.72000002491231 0 0 0.72 408.88799461645 251.712008290221)" fill="#ff7e75" d="M36 36C55.9 36 72 19.9 72 0L0 0C0 19.9 16.1 36 36 36Z"/><path id="shape46" transform="matrix(0.72000002491231 0 0 0.72 460.727996410137 251.712008290221)" fill="#ff7e75" d="M36 36C55.9 36 72 19.9 72 0L0 0C0 19.9 16.2 36 36 36Z"/><path id="shape47" transform="matrix(0.72000002491231 0 0 0.72 512.639998206314 251.712008290221)" fill="#ff7e75" d="M36 36C55.9 36 72 19.9 72 0L0 0C0 19.9 16.1 36 36 36Z"/><path id="shape48" transform="matrix(0.72000002491231 0 0 0.72 564.480000000001 251.712008290221)" fill="#ff7e75" d="M36 36C55.9 36 72 19.9 72 0L0 0C0 19.9 16.1 36 36 36Z"/><path id="shape49" transform="matrix(0.72000002491231 0 0 0.72 616.391670246378 251.712008290221)" fill="#ff7e75" d="M36.0005 36C55.9005 36 72.0005 19.9 72.0005 0L0.000460486 0C-0.0995395 19.9 16.1005 36 36.0005 36Z"/><path id="shape50" transform="matrix(0.72000002491231 0 0 0.72 668.232003589864 251.712008290221)" fill="#ff7e75" d="M36 36C55.9 36 72 19.9 72 0L0 0C0 19.9 16.1 36 36 36Z"/><path id="shape51" transform="matrix(0.72000002491231 0 0 0.72 720.072005383551 251.712008290221)" fill="#ff7e75" d="M36 36C55.9 36 72 19.9 72 0L0 0C1.13687e-13 19.9 16.1 36 36 36Z"/><path id="shape52" transform="matrix(0.72000002491231 0 0 0.72 771.984007179728 251.712008290221)" fill="#ff7e75" d="M36 36C55.9 36 72 19.9 72 0L0 0C0 19.9 16.1 36 36 36Z"/><path id="shape53" transform="matrix(0.72000002491231 0 0 0.72 823.824008973414 251.712008290221)" fill="#ff7e75" d="M36 36C55.9 36 72 19.9 72 0L0 0C0 19.9 16.1 36 36 36Z"/><path id="shape54" transform="matrix(0.72000002491231 0 0 0.72 875.735679219792 251.712008290221)" fill="#ff7e75" d="M36.0005 36C55.9005 36 72.0005 19.9 72.0005 0L0.000460486 0C-0.0995395 19.9 16.1005 36 36.0005 36Z"/><rect id="shape55" transform="matrix(0.720000024912309 0 0 0.719999999999999 308.23199113371 408.960008290221)" fill="#e6e7e8" width="576.3" height="15.5"/><rect id="shape56" transform="matrix(0.720000024912309 0 0 0.719999999999999 308.23199113371 437.112008290221)" fill="#007562" width="555.4" height="77.4"/><path id="shape57" transform="matrix(0.72000002491231 0 0 0.72 317.663991460061 306.864008290221)" fill="#b3f0ff" d="M82.7 0L61 0L0 57.5L0 85.6L82.7 7.6Z"/><path id="shape58" transform="matrix(0.72000002491231 0 0 0.72 317.663991460061 306.864008290221)" fill="#8ae8ff" d="M0 0L0 57.5L61 0Z"/><path id="shape59" transform="matrix(0.72000002491231 0 0 0.72 317.663991460061 312.336008290221)" fill="#8ae8ff" d="M82.7 0L0 78L0 116.2L82.7 38.2Z"/><path id="shape60" transform="matrix(0.72000002491231 0 0 0.72 317.663991460061 339.840008290221)" fill="#b3f0ff" d="M82.7 0L0 78L0 78.5L30.4 78.5L82.7 29.1Z"/><path id="shape61" transform="matrix(0.72000002491231 0 0 0.72 339.551992217395 360.792008290221)" fill="#8ae8ff" d="M52.3 0L0 49.4L52.3 49.4Z"/><path id="shape62" transform="matrix(0.72000002491231 0 0 0.72 409.607994641363 361.872008290221)" fill="#8ae8ff" d="M50.8 0L0 47.9L50.8 47.9Z"/><path id="shape63" transform="matrix(0.72000002491231 0 0 0.72 386.63999384666 306.864008290221)" fill="#8ae8ff" d="M0 0L0 58.9L62.5 0Z"/><path id="shape64" transform="matrix(0.72000002491231 0 0 0.72 386.63999384666 306.864008290221)" fill="#b3f0ff" d="M82.7 0L62.5 0L0 58.9L0 87L82.7 9Z"/><path id="shape65" transform="matrix(0.72000002491231 0 0 0.72 387.431993874064 340.920008290221)" fill="#b3f0ff" d="M81.6 0L0 77L30.8 77L81.6 29.1Z"/><path id="shape66" transform="matrix(0.72000002491231 0 0 0.72 386.63999384666 313.344008290221)" fill="#8ae8ff" d="M82.7 0L0 78L0 115.3L1.1 115.3L82.7 38.3Z"/><path id="shape67" transform="matrix(0.72000002491231 0 0 0.72 455.687996235751 306.864008290221)" fill="#8ae8ff" d="M0 0L0 56.8L60.2 0Z"/><path id="shape68" transform="matrix(0.72000002491231 0 0 0.72 455.687996235751 311.832008290221)" fill="#8ae8ff" d="M82.7 0L0 78L0 116.3L82.7 38.3Z"/><path id="shape69" transform="matrix(0.72000002491231 0 0 0.72 455.687996235751 306.864008290221)" fill="#b3f0ff" d="M82.7 0L60.2 0L0 56.8L0 84.9L82.7 6.9Z"/><path id="shape70" transform="matrix(0.72000002491231 0 0 0.72 455.687996235751 339.408008290221)" fill="#b3f0ff" d="M82.7 0L0 78L0 79.1L29.6 79.1L82.7 29.1Z"/><path id="shape71" transform="matrix(0.72000002491231 0 0 0.72 476.999996973155 360.360008290221)" fill="#8ae8ff" d="M53.1 0L0 50L53.1 50Z"/><path id="shape72" transform="matrix(0.72000002491231 0 0 0.72 524.66399862235 306.864008290221)" fill="#b3f0ff" d="M82.7 0L61.8 0L0 58.3L0 86.4L82.7 8.4Z"/><path id="shape73" transform="matrix(0.72000002491231 0 0 0.72 524.66399862235 306.864008290221)" fill="#8ae8ff" d="M0 0L0 58.3L61.8 0Z"/><path id="shape74" transform="matrix(0.72000002491231 0 0 0.72 547.127999399614 361.368008290221)" fill="#8ae8ff" d="M51.5 0L0 48.6L51.5 48.6Z"/><path id="shape75" transform="matrix(0.72000002491231 0 0 0.72 524.879998629824 340.416008290221)" fill="#b3f0ff" d="M82.4 0L0 77.7L30.9 77.7L82.4 29.1Z"/><path id="shape76" transform="matrix(0.72000002491231 0 0 0.72 524.66399862235 312.912008290221)" fill="#8ae8ff" d="M82.7 0L0 78L0 115.9L0.3 115.9L82.7 38.2Z"/><path id="shape77" transform="matrix(0.72000002491231 0 0 0.72 593.640001008949 306.864008290221)" fill="#b3f0ff" d="M82.7 0L63.3 0L0 59.7L0 87.8L82.7 9.8Z"/><path id="shape78" transform="matrix(0.72000002491231 0 0 0.72 593.640001008949 306.864008290221)" fill="#8ae8ff" d="M0 0L0 59.7L63.3 0Z"/><path id="shape79" transform="matrix(0.72000002491231 0 0 0.72 617.184001823582 362.448008290221)" fill="#8ae8ff" d="M50 0L0 47.1L50 47.1Z"/><path id="shape80" transform="matrix(0.72000002491231 0 0 0.72 595.008001056283 341.496008290221)" fill="#b3f0ff" d="M80.8 0L0 76.2L30.8 76.2L80.8 29.1Z"/><path id="shape81" transform="matrix(0.72000002491231 0 0 0.72 593.640001008949 313.920008290221)" fill="#8ae8ff" d="M82.7 0L0 78L0 114.5L1.9 114.5L82.7 38.3Z"/><path id="shape82" transform="matrix(0.72000002491231 0 0 0.72 662.616003395548 306.864008290221)" fill="#b3f0ff" d="M82.7 0L61.2 0L0 57.6L0 85.8L82.7 7.7Z"/><path id="shape83" transform="matrix(0.72000002491231 0 0 0.72 662.616003395548 306.864008290221)" fill="#8ae8ff" d="M0 0L0 57.6L61.2 0Z"/><path id="shape84" transform="matrix(0.72000002491231 0 0 0.72 662.616003395548 312.408008290221)" fill="#8ae8ff" d="M82.7 0L0 78.1L0 116.3L82.7 38.3Z"/><path id="shape85" transform="matrix(0.72000002491231 0 0 0.72 662.616003395548 339.984008290221)" fill="#b3f0ff" d="M82.7 0L0 78L0 78.3L30.5 78.3L82.7 29.1Z"/><path id="shape86" transform="matrix(0.72000002491231 0 0 0.72 684.576004155374 360.936008290221)" fill="#8ae8ff" d="M52.2 0L0 49.2L52.2 49.2Z"/><path id="shape87" transform="matrix(0.72000002491231 0 0 0.72 733.176005836955 390.312008290221)" fill="#8ae8ff" d="M0 142.4L107.3 142.4L107.3 0L0 101.2Z"/><path id="shape88" transform="matrix(0.72000002491231 0 0 0.72 733.176005836955 306.864008290221)" fill="#8ae8ff" d="M107.3 0L0 0L0 101.7L107.3 0.5Z"/><path id="shape89" transform="matrix(0.72000002491231 0 0 0.72 733.176005836955 364.896008290221)" fill="#b3f0ff" d="M0 136.5L107.3 35.3L107.3 0L0 101.2Z"/><path id="shape90" transform="matrix(0.72000002491231 0 0 0.72 733.176005836955 307.224008290221)" fill="#b3f0ff" d="M107.3 0L0 101.2L0 136.5L107.3 35.3Z"/><path id="shape91" transform="matrix(0.72000002491231 0 0 0.72 733.176005836955 332.640008290221)" fill="#8ae8ff" d="M0 101.2L0 146L107.3 44.8L107.3 0Z"/><path id="shape92" transform="matrix(0.720000024912309 0 0 0.719999999999999 447.623995956733 43.920008290221)" fill="#8a8063" d="M323.8 108C297.4 44.6 234.9 0 161.9 0C88.9 0 26.4 44.6 0 108Z"/><path id="shape93" transform="matrix(0.72000002491231 0 0 0.72 164.735986168686 395.424008290221)" fill="#f0f0f0" d="M44.9 0L12.4 172L0 172L32.5 0Z"/><path id="shape94" transform="matrix(0.72000002491231 0 0 0.72 93.8879837173152 395.424008290221)" fill="#ffffff" d="M32.5 0L130.9 0L98.4 172L0 172Z"/><path id="shape95" transform="matrix(0.720000024912309 0 0 0.719999999999999 114.04798441486 468.216008290221)" fill="#d7d8d9" d="M0 51.1L51.1 51.1L60.1 0L9 0Z"/><path id="shape96" transform="matrix(0.720000024912309 0 0 0.719999999999999 121.103984659 409.464008290221)" fill="#d7d8d9" d="M74.5 12.2L0 12.2L2.3 0L76.8 0Z"/><path id="shape97" transform="matrix(0.720000024912309 0 0 0.719999999999999 118.367984564334 425.736008290221)" fill="#d7d8d9" d="M74.5 12.3L0 12.3L2.3 0L76.8 0Z"/><path id="shape98" transform="matrix(0.720000024912309 0 0 0.719999999999999 115.631984469667 442.008008290221)" fill="#d7d8d9" d="M74.5 12.3L0 12.3L2.3 0L76.8 0Z"/><path id="shape104" transform="matrix(0.720000024912309 0 0 0.719999999999999 80.7119832614199 602.064008290221)" fill="#6d6e71" d="M316 22.4C316 34.8 306 44.8 293.6 44.8L22.4 44.8C10 44.8 0 34.8 0 22.4L0 22.4C0 10 10 0 22.4 0L293.7 0C306 2.27374e-13 316 10.1 316 22.4Z"/><path id="shape105" transform="matrix(0.720000024912309 0 0 0.719999999999999 807.984008425344 595.368008290221)" fill="#6d6e71" d="M161.5 22.4C161.5 34.8 151.5 44.8 139.1 44.8L22.4 44.8C10 44.8 0 34.8 0 22.4L0 22.4C0 10 10 0 22.4 0L139.1 0C151.5 2.27374e-13 161.5 10 161.5 22.4Z"/><path id="shape106" transform="matrix(0.720000024912309 0 0 0.719999999999999 345.023992406729 602.064008290221)" fill="#6d6e71" d="M0 22.4C0 34.8 10 44.8 22.4 44.8C34.8 44.8 44.8 34.8 44.8 22.4C44.8 10 34.8 0 22.4 0C10 2.27374e-13 0 10.1 0 22.4Z"/><circle id="shape107" transform="matrix(0.720000024912309 0 0 0.719999999999999 958.968013649455 595.368008290221)" r="22.4" cx="22.4" cy="22.4" fill="#6d6e71"/><path id="shape108" transform="matrix(0.720000024912309 0 0 0.719999999999999 469.295996706593 593.712008290221)" fill="#6d6e71" d="M338.7 0L152.4 0C139.3 0 128.6 10.6 128.6 23.8C128.6 24.9 128.7 25.9 128.8 27L20.6 27C9.2 27 0 36.2 0 47.6C0 59 9.2 68.2 20.6 68.2L236.8 68.2C248.2 68.2 257.4 59 257.4 47.6L338.8 47.6C351.9 47.6 362.6 37 362.6 23.8C362.6 10.6 351.8 0 338.7 0Z"/><path id="shape109" transform="matrix(0.72000002491231 0 0 0.72 300.67199087213 414.576008290221)" fill="#ff665d" d="M75.5 0L0 0L0 29.6L66.4 29.6Z"/><path id="shape110" transform="matrix(0.72000002491231 0 0 0.72 300.67199087213 414.576008290221)" fill="#e65c53" d="M66.4 29.6L0 29.6L0 37.2L79.4 37.2L79.4 0L75.5 0Z"/><rect id="shape111" transform="matrix(0.720000024912309 0 0 0.719999999999999 306.575991076411 441.360008290221)" fill="#ffffff" width="9.6" height="80.8"/><rect id="shape112" transform="matrix(0.720000024912309 0 0 0.719999999999999 345.023992406729 441.360008290221)" fill="#ffffff" width="9.6" height="80.8"/><rect id="shape113" transform="matrix(0.72000002491231 0 0 0.72 300.67199087213 470.448008290221)" fill="#e65c53" width="79.4" height="6.2"/><rect id="shape114" transform="matrix(0.72000002491231 0 0 0.72 300.67199087213 463.680008290221)" fill="#ff665d" width="79.4" height="9.4"/><path id="shape115" transform="matrix(0.72000002491231 0 0 0.72 423.287995114697 414.576008290221)" fill="#ff665d" d="M75.5 0L0 0L0 29.6L66.4 29.6Z"/><path id="shape116" transform="matrix(0.72000002491231 0 0 0.72 423.287995114697 414.576008290221)" fill="#e65c53" d="M66.4 29.6L0 29.6L0 37.2L79.4 37.2L79.4 0L75.5 0Z"/><rect id="shape117" transform="matrix(0.720000024912309 0 0 0.719999999999999 429.191995318978 441.360008290221)" fill="#ffffff" width="9.6" height="80.8"/><rect id="shape118" transform="matrix(0.720000024912309 0 0 0.719999999999999 467.639996649295 441.360008290221)" fill="#ffffff" width="9.6" height="80.8"/><rect id="shape119" transform="matrix(0.72000002491231 0 0 0.72 423.287995114697 470.448008290221)" fill="#e65c53" width="79.4" height="6.2"/><rect id="shape120" transform="matrix(0.72000002491231 0 0 0.72 423.287995114697 463.680008290221)" fill="#ff665d" width="79.4" height="9.4"/><path id="shape121" transform="matrix(0.72000002491231 0 0 0.72 370.079993273677 440.208008290221)" fill="#e6e7e8" d="M0 0C5.1 6.6 12.1 18.4 12.9 33.8L23.8 33.8C23.1 20 18.2 8.6 13.3 0.3Z"/><path id="shape122" transform="matrix(0.72000002491231 0 0 0.72 379.223993590063 464.544008290221)" fill="#cdcecf" d="M0 8.5L10.9 9.2C11.2 6 11.2 2.9 11.1 0L0.2 0C0.4 2.7 0.3 5.5 0 8.5Z"/><path id="shape123" transform="matrix(0.72000002491231 0 0 0.72 393.911994098274 441.000008290221)" fill="#e6e7e8" d="M22.7 0.3L10.1 0C5.3 8.2 0.7 19.3 0 32.7L10.9 32.7C11.6 18.4 17.7 7.2 22.7 0.3Z"/><path id="shape124" transform="matrix(0.72000002491231 0 0 0.72 393.837076800755 464.544008290221)" fill="#cdcecf" d="M11.0041 0L0.104052 0C-0.0959482 3.2 0.0040518 6.5 0.304052 9.9L11.4041 10.6C10.9041 6.9 10.8041 3.4 11.0041 0Z"/><path id="shape125" transform="matrix(0.72000002491231 0 0 0.72 366.263993141642 470.664008290221)" fill="#e6e7e8" d="M0 40.1L13.7 40.1C23.6 25.9 27.9 12.6 29 0.7L18.1 0C16.9 11.8 11.8 25.4 0 40.1Z"/><path id="shape126" transform="matrix(0.72000002491231 0 0 0.72 394.055994103257 471.672008290221)" fill="#e6e7e8" d="M28.9 38.7C17.7 24.9 12.6 12 11.1 0.7L0 0C1.1 11.7 5.5 24.8 15.2 38.7Z"/><path id="shape127" transform="matrix(0.72000002491231 0 0 0.72 366.263993141642 430.056008290221)" fill="#cdcecf" d="M7.4 0L0 8.1C0.4 8.4 2.6 10.5 5.3 14.1L18.5 14.4C13.1 5.4 7.6 0.2 7.4 0Z"/><path id="shape128" transform="matrix(0.72000002491231 0 0 0.72 401.183994349889 430.056008290221)" fill="#cdcecf" d="M19 8.1L11.6 0C11.4 0.2 5.6 5.7 0 15.2L12.6 15.5C15.8 11.1 18.6 8.5 19 8.1Z"/><path id="shape129" transform="matrix(0.720000024912309 0 0 0.719999999999999 374.111993413186 460.584008290221)" fill="#ffffff" d="M45.7 5.5C45.7 8.5 43.2 11 40.2 11L5.5 11C2.5 11 0 8.5 0 5.5L0 5.5C0 2.5 2.5 0 5.5 0L40.2 0C43.2 0 45.7 2.5 45.7 5.5Z"/><rect id="shape130" transform="matrix(0.720000024912309 0 0 0.719999999999999 341.783992294623 429.120008290221)" fill="#ffffff" width="135.6" height="12.3"/><path id="shape131" transform="matrix(0.72000002491231 0 0 0.72 500.543997787788 414.576008290221)" fill="#ff665d" d="M75.5 0L0 0L0 29.6L66.4 29.6Z"/><path id="shape132" transform="matrix(0.72000002491231 0 0 0.72 500.543997787787 414.576008290221)" fill="#e65c53" d="M66.4 29.6L0 29.6L0 37.2L79.4 37.2L79.4 0L75.5 0Z"/><rect id="shape133" transform="matrix(0.720000024912309 0 0 0.719999999999999 506.447997992068 441.360008290221)" fill="#ffffff" width="9.6" height="80.8"/><rect id="shape134" transform="matrix(0.720000024912309 0 0 0.719999999999999 544.895999322386 441.360008290221)" fill="#ffffff" width="9.6" height="80.8"/><rect id="shape135" transform="matrix(0.72000002491231 0 0 0.72 500.543997787787 470.448008290221)" fill="#e65c53" width="79.4" height="6.2"/><rect id="shape136" transform="matrix(0.72000002491231 0 0 0.72 500.543997787787 463.680008290221)" fill="#ff665d" width="79.4" height="9.4"/><path id="shape137" transform="matrix(0.72000002491231 0 0 0.72 623.088002027863 414.576008290221)" fill="#ff665d" d="M75.6 0L0 0L0 29.6L66.5 29.6Z"/><path id="shape138" transform="matrix(0.72000002491231 0 0 0.72 623.088002027863 414.576008290221)" fill="#e65c53" d="M66.5 29.6L0 29.6L0 37.2L79.5 37.2L79.5 0L75.6 0Z"/><rect id="shape139" transform="matrix(0.720000024912309 0 0 0.719999999999999 629.064002234635 441.360008290221)" fill="#ffffff" width="9.6" height="80.8"/><rect id="shape140" transform="matrix(0.720000024912309 0 0 0.719999999999999 667.512003564952 441.360008290221)" fill="#ffffff" width="9.6" height="80.8"/><rect id="shape141" transform="matrix(0.72000002491231 0 0 0.72 623.088002027863 470.448008290221)" fill="#e65c53" width="79.4" height="6.2"/><rect id="shape142" transform="matrix(0.72000002491231 0 0 0.72 623.088002027863 463.680008290221)" fill="#ff665d" width="79.4" height="9.4"/><path id="shape143" transform="matrix(0.72000002491231 0 0 0.72 569.952000189334 440.208008290221)" fill="#e6e7e8" d="M0 0C5.1 6.6 12.1 18.4 12.9 33.8L23.8 33.8C23.1 20 18.2 8.6 13.3 0.3Z"/><path id="shape144" transform="matrix(0.72000002491231 0 0 0.72 579.096000505721 464.544008290221)" fill="#cdcecf" d="M0 8.5L10.9 9.2C11.2 6 11.2 2.9 11.1 0L0.2 0C0.3 2.7 0.3 5.5 0 8.5Z"/><path id="shape145" transform="matrix(0.72000002491231 0 0 0.72 593.784001013932 441.000008290221)" fill="#e6e7e8" d="M22.7 0.3L10.1 0C5.3 8.2 0.7 19.3 0 32.7L10.9 32.7C11.6 18.4 17.7 7.2 22.7 0.3Z"/><path id="shape146" transform="matrix(0.72000002491231 0 0 0.72 593.637083713921 464.544008290221)" fill="#cdcecf" d="M11.0041 0L0.104052 0C-0.0959482 3.2 0.0040518 6.5 0.304052 9.9L11.4041 10.6C11.0041 6.9 10.9041 3.4 11.0041 0Z"/><path id="shape147" transform="matrix(0.72000002491231 0 0 0.72 566.136000057299 470.664008290221)" fill="#e6e7e8" d="M0 40.1L13.7 40.1C23.6 25.9 27.9 12.6 29 0.7L18.1 0C16.8 11.8 11.8 25.4 0 40.1Z"/><path id="shape148" transform="matrix(0.72000002491231 0 0 0.72 593.928001018914 471.672008290221)" fill="#e6e7e8" d="M28.9 38.7C17.7 24.9 12.6 12 11.1 0.7L0 0C1.1 11.7 5.5 24.8 15.2 38.7Z"/><path id="shape149" transform="matrix(0.72000002491231 0 0 0.72 566.136000057299 430.056008290221)" fill="#cdcecf" d="M7.4 0L0 8.1C0.4 8.4 2.6 10.5 5.3 14.1L18.5 14.4C13.1 5.4 7.6 0.2 7.4 0Z"/><path id="shape150" transform="matrix(0.72000002491231 0 0 0.72 601.056001265546 430.056008290221)" fill="#cdcecf" d="M19 8.1L11.6 0C11.4 0.2 5.6 5.7 0 15.2L12.6 15.5C15.8 11.1 18.5 8.5 19 8.1Z"/><path id="shape151" transform="matrix(0.720000024912309 0 0 0.719999999999999 573.912000326352 460.584008290221)" fill="#ffffff" d="M45.7 5.5C45.7 8.5 43.2 11 40.2 11L5.5 11C2.5 11 0 8.5 0 5.5L0 5.5C0 2.5 2.5 0 5.5 0L40.2 0C43.3 0 45.7 2.5 45.7 5.5Z"/><rect id="shape152" transform="matrix(0.720000024912309 0 0 0.719999999999999 541.583999207789 429.120008290221)" fill="#ffffff" width="135.6" height="12.3"/>
</svg>
